<svg width="199px" height="199px" viewBox="0 0 199 199" version="1.1" xmlns="http://www.w3.org/2000/svg"
     xmlns:xlink="http://www.w3.org/1999/xlink">

    <g id="Page-1" stroke="none" stroke-width="1" fill="none" fill-rule="evenodd">
        <g id="home-hashtag" fill="#2CCCFF" fill-rule="nonzero">
            <path d="M152.76,198.38793 L46.0226087,198.38793 C20.7669565,198.38793 0.304347826,177.833148 0.304347826,152.577496 L0.304347826,84.2766261 C0.304347826,71.7410661 8.04695652,55.979327 18.0017391,48.2367183 L67.6834783,9.52367478 C82.6156522,-2.0902567 106.488696,-2.64330017 121.973913,8.23324 L178.937391,48.1445443 C189.906087,55.7949791 198.478261,72.2019357 198.478261,85.5670609 L198.478261,152.66967 C198.478261,177.833148 178.015652,198.38793 152.76,198.38793 Z M76.1634783,20.4001965 L26.4817391,59.11324 C19.9373913,64.2749791 14.1304348,75.9810661 14.1304348,84.2766261 L14.1304348,152.577496 C14.1304348,170.182713 28.4173913,184.561843 46.0226087,184.561843 L152.76,184.561843 C170.365217,184.561843 184.652174,170.274887 184.652174,152.66967 L184.652174,85.5670609 C184.652174,76.7184574 178.292174,64.459327 171.010435,59.4819357 L114.046957,19.5706313 C103.53913,12.1967183 86.2104348,12.5654139 76.1634783,20.4001965 Z"
                  id="Shape"></path>
            <path d="M113.217391,161.608696 L85.5652174,161.608696 C66.4852174,161.608696 51,146.123478 51,127.043478 L51,99.3913043 C51,80.3113043 66.4852174,64.826087 85.5652174,64.826087 L113.217391,64.826087 C132.297391,64.826087 147.782609,80.3113043 147.782609,99.3913043 L147.782609,127.043478 C147.782609,146.123478 132.297391,161.608696 113.217391,161.608696 Z M85.5652174,78.6521739 C74.1356522,78.6521739 64.826087,87.9617391 64.826087,99.3913043 L64.826087,127.043478 C64.826087,138.473043 74.1356522,147.782609 85.5652174,147.782609 L113.217391,147.782609 C124.646957,147.782609 133.956522,138.473043 133.956522,127.043478 L133.956522,99.3913043 C133.956522,87.9617391 124.646957,78.6521739 113.217391,78.6521739 L85.5652174,78.6521739 Z"
                  id="Shape"></path>
        </g>
    </g>
</svg>